<svg xmlns="http://www.w3.org/2000/svg" version="1.1" xmlns:xlink="http://www.w3.org/1999/xlink" xmlns:svgjs="http://svgjs.dev/svgjs" width="1500" height="1500" viewBox="0 0 1500 1500"><rect width="1500" height="1500" fill="#ffffff"></rect><g transform="matrix(0.6666666666666666,0,0,0.6666666666666666,248.44237538940803,189.33333333333348)"><svg viewBox="0 0 321 360" data-background-color="#111111" preserveAspectRatio="xMidYMid meet" height="1682" width="1500" xmlns="http://www.w3.org/2000/svg" xmlns:xlink="http://www.w3.org/1999/xlink"><g id="tight-bounds" transform="matrix(1,0,0,1,0.5000025000000505,0)"><svg viewBox="0 0 320 360" height="360" width="320"><g><svg></svg></g><g><svg viewBox="0 0 320 360" height="360" width="320"><g><path transform="translate(-19.44751,3.1739) scale(3.53591,3.53591)" d="M67.6 10.7c0.2 0 1.8 0.8 2.7 1.1-0.3 0.1-1-0.2-1.8-0.5 0.2 0 0.6 0.1 1 0.3-0.2-0.2-1.7-0.7-1.9-0.9M52.7 7.6c0.3-0.1 3.8 0.4 5.4 0.5 0.1-0.1-0.2-0.1-0.6-0.2 0.5-0.1 1.5 0.2 2.2 0.3-2.1 0.1-4.4-0.5-6.4-0.3-0.7 0-0.2-0.2-0.6-0.3M49.8 7.6c1.8 0 3.2 0 0.6 0.2-0.3-0.1-0.7-0.1-0.6-0.2M78.1 15.9c0.2 0 1 0.9 1.4 1.2-0.1 0.1-0.9-0.7-1.3-1 0.1 0.1 0 0-0.1-0.2M76.1 14.6c-0.8-0.7-1.1-0.7-1.2-1.1 0.7 0.4 1.2 0.8 1.2 1.1M63.2 8.3c0.1-0.1 0.3 0.1 0.8 0.2-0.6-0.1-0.5 0-0.3 0.2-0.7-0.1-0.9-0.2-0.7-0.4 0.4 0.2 0.5 0.1 0.2 0M34.8 9.5c0-0.1 0.4-0.3 0.7-0.4-0.3 0.2-0.2 0.3 0.3 0.1 0 0.1-0.6 0.3-1 0.5 0.2-0.1 0.4-0.4 0-0.2M65.2 7.3c-0.3 0.1-1.4-0.5-2.5-0.7-0.6-0.2 2.4 0.5 2.5 0.7M6.2 56.7c0.6 2.5 0.2 2.4 0 0M6.3 41.7c0.1-0.4 0.2-1.5 0.3-1.4-0.3 2.4-0.8 3.5-0.9 5.3 0.3-1.6-0.1 0.9-0.2 1.5 0.1 0.8 0.1-0.5 0.3-0.3 0.2 0.3-0.4 4.5-0.2 2.2-0.2 2.1 0 4.4 0.4 5-0.5 3.2 2 10.4 2.5 11.9 0.1 0.1 0-0.5 0.2-0.1 0.2 1.3 1.1 2.2 1.4 3.6 0.3 0.4 1.5 2.6 1.7 3.1 0.4 0.8 0.6 0.7 1 1.5 1.2 2.3 3.1 4.5 4.9 6.6 5.8 6.8 14.7 12.4 24.6 14.4 9.9 2.1 20.3 0.6 28.4-3.3 0.5-0.3 0.4-0.4 1-0.6 2.8-0.9 6.2-3.8 8.1-4.9 0.9-1 3.3-2.7 3.6-3.7 1.7-1.4 3.4-3.7 4.3-5.2 0.5-0.8 0.9-0.8 1.1-1.3-0.1 0 1.6-2.1 2.1-3.3-0.2 0-0.5 0.6-0.5 0 3.6-6.9 5.6-16.2 4.5-22.6 0.2 7.9-1.8 16.7-5.6 22.3-1.7 3.6-5.2 7.5-8.4 10.3-0.5 0.5-1 1.1-1.6 1.5-1.9 1.6-4 2.9-6.2 4.1-5.2 2.9-11 5.4-17.8 5.5 11.7-1 22.2-6.9 28-14.1-4.4 4.3-6.3 6-11.2 8.5-0.4 0.7-3.7 2.1-5.9 2.7 1.3-0.6 4-1.6 4.9-2.4-7.3 3.5-15.4 5.5-23 4.4 2.9 0 7 0.1 10.9-0.6 0.6-0.2 0.9-0.4 1.6-0.5 7.6-1.7 14.9-5.4 20.1-10.6-3 2.7-7.5 5.9-10.4 6.9 2.7-1.5 7.6-4.4 9.2-6.6-3.2 3.2-9.2 6.4-13 7.8-0.6 0.1 0.4-0.4-0.6 0-1.2 0.3-0.7 0.3-1 0.5-4.6 1.3-9.9 2.4-14.3 2-0.8-0.1-1.1-0.3-1.8-0.3-0.8-0.1-1.5-0.1-2.4-0.1-3.5-0.4-7.3-1.8-10.1-3-1.5-0.7-3-1.2-4.5-2.1-1.2-0.7-2.2-1.5-3.2-2.3-3.8-2.8-7-5.6-10-9.6-5.4-7.5-8.2-16.9-7.8-26.2 0.4-9.3 4.1-18.4 10-25.1-0.3 0.3 0.4-0.7 1-1.3 0 0.2-0.1 0.5 0.6-0.2 0.6-0.7-0.2-0.2 0.1-0.6 6.2-6.8 17-12.3 28.1-12.5 0.4-0.3 1.1-0.7 1.9-0.5 0 0.1-0.5 0.1-0.5 0.1 1.1-0.1 2.1-0.1 2.6 0.1 0.1-0.1-0.4-0.2 0-0.2 0.7 0.2 0.9 0 1.3 0.2-0.3 0-0.6 0-0.8 0.1 2.5 0 4.1 0.6 6.6 0.8-1.3-0.3-1.6-0.3-2.6-0.6 1.1 0.2 1.6 0.4 2.1 0.3-0.2 0-0.1-0.3 0.1-0.2 2 0.5 2.2 0.7 4.3 1.4 0.2-0.2-0.9-0.3-1.2-0.6 2 0.7 3.8 1.2 5 2-0.4-0.3-1.6-0.7-2.5-1.1-0.1 0.1 0.3 0.2 0.4 0.4-1-0.5-2.4-1-3.8-1.2 1.2 0.3 2 0.7 2.5 0.9-1.1-0.2-2.5-0.9-4.1-1.2 2.6 0.8 7.5 2.6 10.5 4.2-1.1-0.7-2.4-1.2-3.1-1.6 0.6 0.1 1.3 0.5 1.3 0.3 0.7 0.3 1.6 1 2.1 1.1-0.9-0.6-2.7-1.5-3.3-1.8 7.5 3.4 14.2 9.1 18.5 16.4 0.4 0.7 1 2.3 1.5 2.5-0.1-0.5-0.5-0.8-0.9-1.6 0.2 0 0.2-0.3 0-0.6-0.4-0.5 0 0.4-0.4-0.1-1.8-3.3-4-6.2-7.4-9.4 1.9 1.8 0.5 0.5 0.1-0.1 2.6 2.3 5.6 6.2 6.9 8.2-0.2-0.3-0.3-0.5-0.2-0.5 2.4 4.1 3.9 7.8 5.4 13.1 0.1 0.1 0-0.4 0.2-0.1 1 4.2 1.3 7.7 1.2 10.9 0.8-5.4-1-13.8-4.2-20.4-0.4-0.8-0.4-0.2-0.8-1.1 0-0.3-0.3-0.9-0.5-1.3-4-6.6-8.9-11.3-14.7-15 0.4 0.2 1.2 0.8 1.2 0.7-10.8-7.1-23.3-8.1-33.6-5.9-0.7 0.3-1 0.6-1.8 1 1.5-0.5 2.4-0.6 3.8-0.9 0.3-0.3-1.3 0.1-0.6-0.2 0.1 0.1 1.4-0.2 1.7-0.1 0 0.1-0.4 0.2-0.5 0.3 3.3-0.7 6.7-0.8 9.6-0.6-1.7 0.1-4.8-0.2-5.8 0.3 1-0.1 2.4-0.2 3.3-0.1-1.2 0-3.4 0.1-4.4 0.2-0.1-0.1 1.6-0.3 0.5-0.3-0.5 0.1-1.3 0.1-1.6 0.4-8.6 0.8-17 5.3-22.9 10.6-1.2 1-2.6 2.1-3.5 3.2-2.2 2.5-3.6 5-5.2 7.2 1-2.1 3.2-5.3 5.8-8 2.6-2.7 5.4-5 6.9-6.2 0 0.4 2.4-1.5 3.3-2.1-0.6 0.5 0.4-0.2 0.6-0.1 3.2-1.9 5.8-2.6 8.7-3.7-0.7 0.2-1.3 0.4-1.4 0.3 0.7-0.2 1.1-0.4 1-0.5-2.8 0.8-7.2 2.7-10.7 4.8 6.3-4.3 14.3-6.9 22.2-7 7.9-0.2 15.6 1.8 21.7 5 4.1 1.8 8 5.1 11.1 8.3 0.9 0.8 0.2-0.2 1.5 1.2-0.4-0.2-0.7-0.4-0.2 0.2 0.8 0.9-0.2-0.7 1.1 0.9-0.1 0-0.5-0.5-0.5-0.3 3.5 3.1 6.2 8.7 7.8 12.4-0.4-1.5-1.4-3.6-2.2-5.1 2.4 4.4 3.2 7 4.2 10.9 0.4 0.3-0.2-1.4 0.2-0.6 0.1 0.6 0.2 2.5 0.6 2.8-0.3-1.9-0.8-4.2-1.2-4.6 0.3 0.2-0.5-2.3-1-2.9-0.2-1.6-1.6-4.4-2.8-6.5-4.3-8.4-12-15.3-20.6-19.1 0-0.2-0.5-0.4-0.7-0.6-8.5-3.6-18.7-4.6-28.5-2.3-9.9 2.4-19.2 8.1-25.8 16.3 0.3-1 2.8-2.9 2.9-3.7-2.9 3.1-6 7.2-8.1 11.6-2.2 4.4-3.4 8.9-3.9 12.2" fill="#000000" fill-rule="nonzero" stroke="none" stroke-width="1" stroke-linecap="butt" stroke-linejoin="miter" stroke-miterlimit="10" stroke-dasharray="" stroke-dashoffset="0" font-family="none" font-weight="none" font-size="none" text-anchor="none" style="mix-blend-mode: normal" data-fill-palette-color="tertiary"></path></g><g transform="matrix(1,0,0,1,48,158.9503178765712)"><svg viewBox="0 0 224 42.09936424685756" height="42.09936424685756" width="224"><g><svg viewBox="0 0 284.42956588126594 53.45671382415618" height="42.09936424685756" width="224"><g transform="matrix(1,0,0,1,0,7.388011823743728)"><svg viewBox="0 0 224 38.680690176668726" height="38.680690176668726" width="224"><g id="textblocktransform"><svg viewBox="0 0 224 38.680690176668726" height="38.680690176668726" width="224" id="textblock"><g><svg viewBox="0 0 224 38.680690176668726" height="38.680690176668726" width="224"><g transform="matrix(1,0,0,1,0,0)"><svg width="224" viewBox="0.34375 -40 272.73625 47.1" height="38.680690176668726" data-palette-color="#ffffff"><path d="M28.15-1.2L17.15-34.8 6.2-1.2 6.2-1.25Q5.9-0.5 5.38-0.03 4.85 0.45 4.1 0.45L4.1 0.45Q3.7 0.45 3.33 0.38 2.95 0.3 2.55 0.2L2.55 0.2 2.6 0.2Q-0.25-0.7 0.5-3L0.5-3 11.9-37.65Q12.15-38.45 12.78-39 13.4-39.55 14.25-39.65L14.25-39.65Q15.1-39.8 15.9-39.88 16.7-39.95 17.15-39.95L17.15-39.95Q17.6-39.95 18.4-39.88 19.2-39.8 20.05-39.7L20.05-39.7Q20.75-39.6 21.43-38.95 22.1-38.3 22.45-37.65L22.45-37.65Q25.25-29.05 28.13-20.33 31-11.6 33.8-3L33.8-3Q34.5-0.7 31.7 0.2L31.7 0.2Q31.3 0.3 30.98 0.38 30.65 0.45 30.25 0.45L30.25 0.45Q29.55 0.45 28.98-0.03 28.4-0.5 28.15-1.25L28.15-1.25 28.15-1.2ZM20.9-12L20.9-12Q20.9-10.4 19.78-9.28 18.65-8.15 17.05-8.15L17.05-8.15Q15.45-8.15 14.35-9.28 13.25-10.4 13.25-12L13.25-12Q13.25-13.6 14.35-14.73 15.45-15.85 17.05-15.85L17.05-15.85Q18.65-15.85 19.78-14.73 20.9-13.6 20.9-12ZM43.35-25.4L43.3-2.1Q43.3-0.9 42.45-0.3 41.6 0.3 40.6 0.3L40.6 0.3Q37.85 0.3 37.85-2.1L37.85-2.1 37.85-37.6Q37.85-40 40.6-40L40.6-40Q43.35-40 43.35-37.6L43.35-37.6 43.35-30.1 53.9-30.1Q56.45-30.1 59.2-28.2L59.2-28.2Q61.9-26.3 61.9-22.2L61.9-22.2 61.9-7.3Q61.9-3.15 59.45-1.6L59.45-1.6Q57 0 53.85 0L53.85 0 47.95 0Q46.15 0 46.05-2.35L46.05-2.35Q46.05-4.7 47.95-4.7L47.95-4.7 52.95-4.7Q54.8-4.7 55.6-5.38 56.4-6.05 56.4-7.35L56.4-7.35 56.4-21.75Q56.4-23.05 55.6-24.25L55.6-24.25 55.65-24.2Q55-25.4 53-25.4L53-25.4 43.35-25.4ZM76.05-30.1L84.05-30.1Q85.34-30.1 86.72-29.55 88.09-29 89.4-28.15L89.4-28.15 89.34-28.15Q90.65-27.2 91.34-25.68 92.05-24.15 92.05-22.15L92.05-22.15 92.05-7.95Q92.05-3.85 89.34-1.9L89.34-1.9Q86.7 0 84.05 0L84.05 0 76.05 0Q74.75 0 73.4-0.45 72.05-0.9 70.75-1.9L70.75-1.9Q68.05-3.8 68.05-7.95L68.05-7.95 68.05-22.15Q68.05-24.15 68.75-25.68 69.45-27.2 70.75-28.15L70.75-28.15 70.7-28.15Q71.95-29 73.34-29.55 74.75-30.1 76.05-30.1L76.05-30.1ZM76.95-4.7L83.15-4.7Q85-4.7 85.77-5.75 86.55-6.8 86.55-8L86.55-8 86.55-22.1Q86.55-23.35 85.77-24.38 85-25.4 83.15-25.4L83.15-25.4 76.95-25.4Q75.09-25.4 74.32-24.38 73.55-23.35 73.55-22.1L73.55-22.1 73.55-8Q73.55-6.8 74.32-5.75 75.09-4.7 76.95-4.7L76.95-4.7ZM103.84-25.4L103.79-2.1Q103.79-0.9 102.94-0.3 102.09 0.3 101.09 0.3L101.09 0.3Q98.34 0.3 98.34-2.1L98.34-2.1 98.34-37.6Q98.34-40 101.09-40L101.09-40Q103.84-40 103.84-37.6L103.84-37.6 103.84-30.1 114.39-30.1Q116.94-30.1 119.69-28.2L119.69-28.2Q122.39-26.3 122.39-22.2L122.39-22.2 122.39-7.3Q122.39-3.15 119.94-1.6L119.94-1.6Q117.49 0 114.34 0L114.34 0 108.44 0Q106.64 0 106.54-2.35L106.54-2.35Q106.54-4.7 108.44-4.7L108.44-4.7 113.44-4.7Q115.29-4.7 116.09-5.38 116.89-6.05 116.89-7.35L116.89-7.35 116.89-21.75Q116.89-23.05 116.09-24.25L116.09-24.25 116.14-24.2Q115.49-25.4 113.49-25.4L113.49-25.4 103.84-25.4ZM142.64 0L136.09 0Q134.54 0 133.14-0.43 131.74-0.85 130.44-1.65L130.44-1.65 130.44-1.6Q127.99-3.15 127.99-7.3L127.99-7.3 127.99-9.75Q127.99-11.8 128.72-13.33 129.44-14.85 130.74-15.75L130.74-15.75 130.69-15.75Q131.94-16.6 133.34-17.03 134.74-17.45 136.04-17.45L136.04-17.45 147.09-17.45 147.09-22.1Q147.09-23.35 146.31-24.38 145.54-25.4 143.69-25.4L143.69-25.4 137.84-25.4Q135.94-25.4 135.22-24.48 134.49-23.55 134.49-22.3L134.49-22.3 134.49-21.9Q134.49-19.3 131.69-19.3L131.69-19.3Q128.89-19.3 128.89-21.9L128.89-21.9 128.89-22.35Q128.89-24.4 129.62-25.8 130.34-27.2 131.59-28.15L131.59-28.15 131.54-28.15Q132.84-29 134.27-29.55 135.69-30.1 136.99-30.1L136.99-30.1 144.59-30.1Q145.84-30.1 147.27-29.55 148.69-29 149.94-28.15L149.94-28.15 149.89-28.15Q151.19-27.2 151.89-25.68 152.59-24.15 152.59-22.15L152.59-22.15 152.59-2.1Q152.59 0.3 149.84 0.3L149.84 0.3Q149.29 0.3 148.81 0.25 148.34 0.2 147.97-0.03 147.59-0.25 147.37-0.68 147.14-1.1 147.14-1.8L147.14-1.8 147.09-12.75 136.99-12.75Q135.89-12.75 135.29-12.5 134.69-12.25 134.34-11.7L134.34-11.7Q133.94-10.85 133.77-10.38 133.59-9.9 133.59-9.3L133.59-9.3 133.59-7.35Q133.59-6.05 134.37-5.38 135.14-4.7 137.04-4.7L137.04-4.7 142.64-4.7Q144.49-4.7 144.49-2.35L144.49-2.35Q144.49-1.35 144.04-0.68 143.59 0 142.64 0L142.64 0ZM182.09 0.05L162.64 0.05Q160.79 0.05 160.14-0.9 159.49-1.85 159.49-3L159.49-3 159.49-37.55Q159.49-39.95 162.39-39.95L162.39-39.95Q165.39-39.95 165.39-37.55L165.39-37.55 165.39-5 182.09-5Q183.89-5 183.89-2.55L183.89-2.55Q183.99 0.05 182.09 0.05L182.09 0.05ZM196.04-30.1L204.04-30.1Q205.34-30.1 206.71-29.55 208.09-29 209.39-28.15L209.39-28.15 209.34-28.15Q210.64-27.2 211.34-25.68 212.04-24.15 212.04-22.15L212.04-22.15 212.04-7.95Q212.04-3.85 209.34-1.9L209.34-1.9Q206.69 0 204.04 0L204.04 0 196.04 0Q194.74 0 193.39-0.45 192.04-0.9 190.74-1.9L190.74-1.9Q188.04-3.8 188.04-7.95L188.04-7.95 188.04-22.15Q188.04-24.15 188.74-25.68 189.44-27.2 190.74-28.15L190.74-28.15 190.69-28.15Q191.94-29 193.34-29.55 194.74-30.1 196.04-30.1L196.04-30.1ZM196.94-4.7L203.14-4.7Q204.99-4.7 205.76-5.75 206.54-6.8 206.54-8L206.54-8 206.54-22.1Q206.54-23.35 205.76-24.38 204.99-25.4 203.14-25.4L203.14-25.4 196.94-25.4Q195.09-25.4 194.31-24.38 193.54-23.35 193.54-22.1L193.54-22.1 193.54-8Q193.54-6.8 194.31-5.75 195.09-4.7 196.94-4.7L196.94-4.7ZM232.43-3.5L226.38-3.5Q225.08-3.5 223.71-3.95 222.33-4.4 221.03-5.25L221.03-5.25Q218.33-7 218.33-11.15L218.33-11.15 218.33-22.45Q218.33-24.55 219.06-26.05 219.78-27.55 221.03-28.4L221.03-28.4Q222.33-29.2 223.68-29.65 225.03-30.1 226.33-30.1L226.33-30.1 234.73-30.1Q235.98-30.1 237.33-29.55 238.68-29 239.83-28.15L239.83-28.15Q240.98-27.2 241.68-25.65 242.38-24.1 242.38-22.15L242.38-22.15 242.38-0.95Q242.38 1.15 241.71 2.63 241.03 4.1 239.83 5.1L239.83 5.1Q238.68 6.05 237.36 6.58 236.03 7.1 234.73 7.1L234.73 7.1 226.33 7.1Q223.68 7.1 220.98 5.55L220.98 5.55Q219.58 4.75 218.96 3.5 218.33 2.25 218.33 0.6L218.33 0.6 218.33 0Q218.33-1 218.98-1.6 219.63-2.2 221.03-2.2L221.03-2.2Q223.83-1.9 223.83 0L223.83 0 223.83 0.55Q223.83 1.1 224.61 1.75 225.38 2.4 227.23 2.4L227.23 2.4 233.48 2.4Q235.33 2.4 236.11 1.35 236.88 0.3 236.88-1L236.88-1 236.88-22.1Q236.88-23.35 236.11-24.38 235.33-25.4 233.48-25.4L233.48-25.4 227.23-25.4Q225.38-25.4 224.61-24.38 223.83-23.35 223.83-22.1L223.83-22.1 223.83-11.55Q223.83-10.3 224.61-9.22 225.38-8.15 227.23-8.15L227.23-8.15 232.43-8.15Q234.23-8.15 234.23-5.85L234.23-5.85Q234.23-4.8 233.81-4.15 233.38-3.5 232.43-3.5L232.43-3.5ZM257.08-30.1L265.08-30.1Q266.38-30.1 267.76-29.55 269.13-29 270.43-28.15L270.43-28.15 270.38-28.15Q271.68-27.2 272.38-25.68 273.08-24.15 273.08-22.15L273.08-22.15 273.08-7.95Q273.08-3.85 270.38-1.9L270.38-1.9Q267.73 0 265.08 0L265.08 0 257.08 0Q255.78 0 254.43-0.45 253.08-0.9 251.78-1.9L251.78-1.9Q249.08-3.8 249.08-7.95L249.08-7.95 249.08-22.15Q249.08-24.15 249.78-25.68 250.48-27.2 251.78-28.15L251.78-28.15 251.73-28.15Q252.98-29 254.38-29.55 255.78-30.1 257.08-30.1L257.08-30.1ZM257.98-4.7L264.18-4.7Q266.03-4.7 266.81-5.75 267.58-6.8 267.58-8L267.58-8 267.58-22.1Q267.58-23.35 266.81-24.38 266.03-25.4 264.18-25.4L264.18-25.4 257.98-25.4Q256.13-25.4 255.36-24.38 254.58-23.35 254.58-22.1L254.58-22.1 254.58-8Q254.58-6.8 255.36-5.75 256.13-4.7 257.98-4.7L257.98-4.7Z" opacity="1" transform="matrix(1,0,0,1,0,0)" fill="#000000" class="wordmark-text-0" data-fill-palette-color="primary" id="text-0"></path></svg></g></svg></g></svg></g></svg></g><g transform="matrix(1,0,0,1,233.13158261414725,0)"><svg viewBox="0 0 51.297983267118695 53.45671382415618" height="53.45671382415618" width="51.297983267118695"><g><svg xmlns="http://www.w3.org/2000/svg" xmlns:xlink="http://www.w3.org/1999/xlink" version="1.1" x="0" y="0" viewBox="2.637 0 94.363 98.334" enable-background="new 0 0 100 100" xml:space="preserve" height="53.45671382415618" width="51.297983267118695" class="icon-icon-0" data-fill-palette-color="accent" id="icon-0"><path display="none" d="M62.653 97.752H37.887L31.236 84.754V61.933L19.721 50.247V25.799L24.63 16.431H13.742V0.103L28.981 7.766V13.148L71.759 13.053V7.663L87 0V16.33H76.108L81.053 25.801V50.259L69.268 61.944V84.751zM39.894 94.473H60.641L64.953 85.998H35.558zM34.517 82.718H65.987V68.172L63.317 73.479 60.388 72.004 64.966 62.901H56.729L50.385 69.341 44.078 62.901H35.588L40.344 71.98 37.439 73.501 34.518 67.926zM34.517 59.623H45.457L50.393 64.661 55.356 59.623H65.987V24.562H76.709L72.41 16.331 28.334 16.431 24.078 24.553 34.517 24.522zM69.268 39.394V57.328L77.775 48.891V39.394zM23.002 48.902L31.236 57.258V39.388L23.002 39.365zM69.268 36.113H77.775V27.842H69.268zM23.002 36.085L31.236 36.109V27.814L23.002 27.839zM17.022 13.152H25.701V9.787L17.022 5.424zM75.041 13.049H83.72V5.321L75.041 9.685z" fill="#000000" data-fill-palette-color="accent"></path><path display="none" d="M67.344 98.334H55.887V95.022H59.213L54.147 79.074 58.009 67.209 49.896 75.417 42.149 67.762 45.899 79.079 40.616 95.022H44.154V98.334H32.489V95.022H37.126L42.409 79.079 36.959 62.634 36.838 62.516H36.63V62.31L30.833 56.581V43.218L36.63 37.114V13.868L50.339 0 63.133 13.902V37.057L69 42.991V56.086L63.19 61.993 57.626 79.085 62.689 95.022H67.343zM39.943 60.925L49.867 70.733 59.947 60.534 59.868 53.784 50.338 63.845 39.943 53.627zM39.943 48.982L50.254 59.116 59.821 49.016V27.729H39.943zM34.146 55.196L36.631 57.651V41.924L34.146 44.54zM63.134 49.667L63.222 57.221 65.688 54.726V44.353L63.134 41.77zM45.486 24.416H54.177L49.875 21.969zM56.146 21.724L59.821 23.813V21.724zM39.943 21.724V23.714L43.511 21.724zM49.89 18.167L54.23 20.635V9.12L50.252 4.8 45.81 9.294V20.441zM57.543 18.411H59.821V15.194L57.543 12.72zM39.943 18.411H42.497V12.645L39.943 15.229z" fill="#000000" data-fill-palette-color="accent"></path><path display="none" d="M79.359 98H56.263V94.721H79.36V98zM44.646 98H21.138V94.721H44.646zM68.28 86.246H32.43L19.498 73.683V49.139L31.45 37.324 31.245 14.381 43.955 1.375H56.961L69.457 14.389 69.251 37.333 81 49.147V73.673zM33.762 82.967H66.931L71.859 78.097V44.607L67.166 39.887 50.352 45.612 33.528 39.884 28.74 44.615V78.088zM22.778 72.297L25.46 74.901V47.857L22.778 50.508zM75.139 47.906V74.855L77.72 72.306V50.5zM36.784 37.527L50.351 42.146 63.954 37.514 50.513 28.427zM34.65 28.298L34.709 34.967 44.77 28.298zM56.179 28.298L65.993 34.934 66.052 28.298zM36.787 13.403H46.285V27.293L50.531 24.48 54.623 27.246V13.403H63.963L55.563 4.655H45.335zM57.902 25.018H66.081L66.156 16.683H57.902zM34.621 25.018H43.005V16.683H34.546z" fill="#000000" data-fill-palette-color="accent"></path><path display="none" d="M68.306 98H32.129L7.786 73.731V25.512L20.028 12.373H45.177L50.379 17.877 55.46 12.373H80.184L93 25.489V73.739zM34.467 94.69H65.973V91.533L50.387 86.233 34.467 91.54zM69.283 91.039V92.4L89.69 72.35V26.837L78.791 15.683H56.909L50.407 22.725 43.751 15.683H21.468L11.095 26.814V72.357L31.158 92.359V91.061L24.953 85.201V59.996L34.376 56.842H19.093V41.949H34.468V56.811L41.456 54.471 40.505 53.532H60.281L59.331 54.471 65.871 56.66V41.949H81.245V56.842H66.41L75.213 59.788V85.18zM28.262 83.774L33.228 88.464 48.738 83.295V61.67L44.093 57.079 28.262 62.377zM52.048 83.303L67.194 88.452 71.904 83.797V62.169L56.693 57.079 52.048 61.67zM48.561 56.842L50.394 58.652 52.226 56.842zM69.181 53.532H77.936V45.258H69.181zM22.402 53.532H31.158V45.258H22.402zM90.162 15.461L78.304 3.326 80.671 1.014 92.529 13.149zM10.639 15.169L8.243 12.886 19.55 1.028 21.945 3.312z" fill="#000000" data-fill-palette-color="accent"></path><path d="M70.034 97.649H29.229L15.157 70.149V57.619L2.637 44.563V15.883H16.647L49.825 3 82.386 15.884H97V44.553L83.869 58.523V70.142zM32.183 93.985H67.073V84.518H32.183zM18.822 69.266L28.518 88.214V57.323L21.875 44.265V29.855L36.407 15.491 49.624 22.08 62.757 15.494 77.531 29.846V44.274L70.736 57.331V88.097L80.203 69.274V18.961L49.812 6.937 18.822 18.97zM32.183 80.854H67.073V58.202L49.517 52.327 32.183 58.196zM49.51 48.46L68.003 54.648 73.867 43.377V31.395L62.073 19.938 49.63 26.178 37.119 19.94 25.541 31.386V43.386L31.265 54.638zM83.869 19.548V53.172L93.336 43.101V19.548zM6.301 43.09L15.157 52.324V19.548H6.301zM41.938 70.985L35.487 64.341 38.116 61.787 44.567 68.431zM57.568 70.96L54.894 68.455 61.116 61.812 63.791 64.318zM45.085 45.658H28.518V28.788H45.085zM32.183 41.994H41.421V32.452H32.183zM70.737 45.602H54.17V28.731H70.737zM57.835 41.937H67.072V32.396H57.835z" fill="#000000" data-fill-palette-color="accent"></path></svg></g></svg></g></svg></g></svg></g></svg></g><defs></defs></svg><rect width="320" height="360" fill="none" stroke="none" visibility="hidden"></rect></g></svg></g></svg>